<svg id="visual" viewBox="0 0 1920 1080" width="1920" height="1080" xmlns="http://www.w3.org/2000/svg" xmlns:xlink="http://www.w3.org/1999/xlink" version="1.1"><rect x="0" y="0" width="1920" height="1080" fill="#000617"></rect><defs><linearGradient id="grad1_0" x1="43.8%" y1="0%" x2="100%" y2="100%"><stop offset="14.444444444444446%" stop-color="#f40c53" stop-opacity="1"></stop><stop offset="85.55555555555554%" stop-color="#f40c53" stop-opacity="1"></stop></linearGradient></defs><defs><linearGradient id="grad1_1" x1="43.8%" y1="0%" x2="100%" y2="100%"><stop offset="14.444444444444446%" stop-color="#f40c53" stop-opacity="1"></stop><stop offset="85.55555555555554%" stop-color="#d00163" stop-opacity="1"></stop></linearGradient></defs><defs><linearGradient id="grad1_2" x1="43.8%" y1="0%" x2="100%" y2="100%"><stop offset="14.444444444444446%" stop-color="#a8156b" stop-opacity="1"></stop><stop offset="85.55555555555554%" stop-color="#d00163" stop-opacity="1"></stop></linearGradient></defs><defs><linearGradient id="grad1_3" x1="43.8%" y1="0%" x2="100%" y2="100%">
<stop offset="14.444444444444446%" stop-color="#a8156b" stop-opacity="1"></stop><stop offset="85.55555555555554%" stop-color="#7d2069" stop-opacity="1"></stop></linearGradient></defs>
<defs><linearGradient id="grad1_4" x1="43.8%" y1="0%" x2="100%" y2="100%"><stop offset="14.444444444444446%" stop-color="#54235d" stop-opacity="1"></stop>
<stop offset="85.55555555555554%" stop-color="#7d2069" stop-opacity="1"></stop></linearGradient></defs>
<defs><linearGradient id="grad1_5" x1="43.8%" y1="0%" x2="100%" y2="100%"><stop offset="14.444444444444446%" stop-color="#54235d" stop-opacity="1"></stop>
<stop offset="85.55555555555554%" stop-color="#301f4a" stop-opacity="1"></stop></linearGradient></defs>
<defs><linearGradient id="grad1_6" x1="43.8%" y1="0%" x2="100%" y2="100%"><stop offset="14.444444444444446%" stop-color="#141731" stop-opacity="1"></stop>
<stop offset="85.55555555555554%" stop-color="#301f4a" stop-opacity="1"></stop></linearGradient></defs>
<defs><linearGradient id="grad1_7" x1="43.8%" y1="0%" x2="100%" y2="100%"><stop offset="14.444444444444446%" stop-color="#141731" stop-opacity="1"></stop>
<stop offset="85.55555555555554%" stop-color="#000617" stop-opacity="1"></stop></linearGradient></defs>
<defs><linearGradient id="grad2_0" x1="0%" y1="0%" x2="56.3%" y2="100%"><stop offset="14.444444444444446%" stop-color="#f40c53" stop-opacity="1"></stop>
<stop offset="85.55555555555554%" stop-color="#f40c53" stop-opacity="1"></stop></linearGradient></defs>
<defs><linearGradient id="grad2_1" x1="0%" y1="0%" x2="56.3%" y2="100%"><stop offset="14.444444444444446%" stop-color="#d00163" stop-opacity="1"></stop>
<stop offset="85.55555555555554%" stop-color="#f40c53" stop-opacity="1"></stop></linearGradient></defs>
<defs><linearGradient id="grad2_2" x1="0%" y1="0%" x2="56.3%" y2="100%"><stop offset="14.444444444444446%" stop-color="#d00163" stop-opacity="1"></stop>
<stop offset="85.55555555555554%" stop-color="#a8156b" stop-opacity="1"></stop></linearGradient></defs>
<defs><linearGradient id="grad2_3" x1="0%" y1="0%" x2="56.3%" y2="100%"><stop offset="14.444444444444446%" stop-color="#7d2069" stop-opacity="1"></stop>
<stop offset="85.55555555555554%" stop-color="#a8156b" stop-opacity="1"></stop></linearGradient></defs>
<defs><linearGradient id="grad2_4" x1="0%" y1="0%" x2="56.3%" y2="100%"><stop offset="14.444444444444446%" stop-color="#7d2069" stop-opacity="1"></stop>
<stop offset="85.55555555555554%" stop-color="#54235d" stop-opacity="1"></stop></linearGradient></defs>
<defs><linearGradient id="grad2_5" x1="0%" y1="0%" x2="56.3%" y2="100%"><stop offset="14.444444444444446%" stop-color="#301f4a" stop-opacity="1"></stop>
<stop offset="85.55555555555554%" stop-color="#54235d" stop-opacity="1"></stop></linearGradient></defs>
<defs><linearGradient id="grad2_6" x1="0%" y1="0%" x2="56.3%" y2="100%"><stop offset="14.444444444444446%" stop-color="#301f4a" stop-opacity="1"></stop>
<stop offset="85.55555555555554%" stop-color="#141731" stop-opacity="1"></stop></linearGradient></defs>
<defs><linearGradient id="grad2_7" x1="0%" y1="0%" x2="56.3%" y2="100%"><stop offset="14.444444444444446%" stop-color="#000617" stop-opacity="1"></stop>
<stop offset="85.55555555555554%" stop-color="#141731" stop-opacity="1"></stop></linearGradient></defs><g transform="translate(1920, 0)">
<path d="M0 1080C-105.5 1049.3 -211.1 1018.6 -319.8 984.3C-428.6 950.1 -540.5 912.2 -606.6 834.9C-672.7 757.6 -692.8 640.8 -766.1 556.6C-839.5 472.5 -966 421.1 -1027.1 333.7C-1088.3 246.4 -1084.2 123.2 -1080 0L0 0Z" fill="#0c1024"></path><path d="M0 945C-92.3 918.1 -184.7 891.3 -279.9 861.3C-375 831.3 -473 798.2 -530.8 730.5C-588.6 662.9 -606.2 560.7 -670.4 487.1C-734.5 413.4 -845.2 368.4 -898.7 292C-952.3 215.6 -948.6 107.8 -945 0L0 0Z" fill="#211c3e"></path>
<path d="M0 810C-79.2 787 -158.3 764 -239.9 738.3C-321.4 712.6 -405.4 684.2 -454.9 626.2C-504.5 568.2 -519.6 480.6 -574.6 417.5C-629.6 354.4 -724.5 315.8 -770.4 250.3C-816.2 184.8 -813.1 92.4 -810 0L0 0Z" fill="#412255"></path><path d="M0 675C-66 655.8 -131.9 636.6 -199.9 615.2C-267.9 593.8 -337.8 570.1 -379.1 521.8C-420.4 473.5 -433 400.5 -478.8 347.9C-524.7 295.3 -603.7 263.2 -642 208.6C-680.2 154 -677.6 77 -675 0L0 0Z" fill="#682364"></path>
<path d="M0 540C-52.8 524.7 -105.5 509.3 -159.9 492.2C-214.3 475 -270.3 456.1 -303.3 417.5C-336.3 378.8 -346.4 320.4 -383.1 278.3C-419.7 236.3 -483 210.5 -513.6 166.9C-544.2 123.2 -542.1 61.6 -540 0L0 0Z" fill="#921c6b"></path><path d="M0 405C-39.6 393.5 -79.2 382 -119.9 369.1C-160.7 356.3 -202.7 342.1 -227.5 313.1C-252.2 284.1 -259.8 240.3 -287.3 208.7C-314.8 177.2 -362.2 157.9 -385.2 125.2C-408.1 92.4 -406.6 46.2 -405 0L0 0Z" fill="#bc0b68"></path>
<path d="M0 270C-26.4 262.3 -52.8 254.7 -80 246.1C-107.1 237.5 -135.1 228.1 -151.6 208.7C-168.2 189.4 -173.2 160.2 -191.5 139.2C-209.9 118.1 -241.5 105.3 -256.8 83.4C-272.1 61.6 -271 30.8 -270 0L0 0Z" fill="#e3005c"></path><path d="M0 135C-13.2 131.2 -26.4 127.3 -40 123C-53.6 118.8 -67.6 114 -75.8 104.4C-84.1 94.7 -86.6 80.1 -95.8 69.6C-104.9 59.1 -120.7 52.6 -128.4 41.7C-136 30.8 -135.5 15.4 -135 0L0 0Z" fill="#f40c53"></path></g><g transform="translate(0, 1080)">
<path d="M0 -1080C97.6 -1020.4 195.2 -960.8 301.3 -927.3C407.4 -893.7 521.9 -886.3 604.2 -831.7C686.6 -777.1 736.9 -675.3 809.8 -588.4C882.8 -501.4 978.3 -429.3 1027.1 -333.7C1075.9 -238.1 1078 -119.1 1080 0L0 0Z" fill="#0c1024"></path><path d="M0 -945C85.4 -892.9 170.8 -840.7 263.6 -811.4C356.4 -782 456.6 -775.5 528.7 -727.7C600.8 -679.9 644.8 -590.9 708.6 -514.8C772.4 -438.8 856 -375.7 898.7 -292C941.5 -208.4 943.2 -104.2 945 0L0 0Z" fill="#211c3e"></path>
<path d="M0 -810C73.2 -765.3 146.4 -720.6 226 -695.5C305.5 -670.3 391.4 -664.7 453.2 -623.8C515 -582.8 552.7 -506.5 607.4 -441.3C662.1 -376.1 733.8 -322 770.4 -250.3C807 -178.6 808.5 -89.3 810 0L0 0Z" fill="#412255"></path><path d="M0 -675C61 -637.8 122 -600.5 188.3 -579.6C254.6 -558.6 326.2 -553.9 377.7 -519.8C429.1 -485.7 460.6 -422.1 506.1 -367.7C551.7 -313.4 611.5 -268.3 642 -208.6C672.5 -148.8 673.7 -74.4 675 0L0 0Z" fill="#682364"></path>
<path d="M0 -540C48.8 -510.2 97.6 -480.4 150.6 -463.6C203.7 -446.9 260.9 -443.1 302.1 -415.8C343.3 -388.5 368.4 -337.7 404.9 -294.2C441.4 -250.7 489.2 -214.7 513.6 -166.9C538 -119.1 539 -59.5 540 0L0 0Z" fill="#921c6b"></path><path d="M0 -405C36.6 -382.7 73.2 -360.3 113 -347.7C152.8 -335.2 195.7 -332.4 226.6 -311.9C257.5 -291.4 276.3 -253.2 303.7 -220.6C331 -188 366.9 -161 385.2 -125.2C403.5 -89.3 404.2 -44.7 405 0L0 0Z" fill="#bc0b68"></path><path d="M0 -270C24.4 -255.1 48.8 -240.2 75.3 -231.8C101.8 -223.4 130.5 -221.6 151.1 -207.9C171.7 -194.3 184.2 -168.8 202.5 -147.1C220.7 -125.4 244.6 -107.3 256.8 -83.4C269 -59.5 269.5 -29.8 270 0L0 0Z" fill="#e3005c"></path><path d="M0 -135C12.2 -127.6 24.4 -120.1 37.7 -115.9C50.9 -111.7 65.2 -110.8 75.5 -104C85.8 -97.1 92.1 -84.4 101.2 -73.5C110.3 -62.7 122.3 -53.7 128.4 -41.7C134.5 -29.8 134.7 -14.9 135 0L0 0Z" fill="#f40c53"></path></g></svg>